#!OML:ASF H:\GeneralSubjects\Female5\Project 1\Capture day 1\Session 1\Female5.ASF
:FULLY-SPECIFIED
:DEGREES
386
root 2.56675 16.0179 0.736791 154.184 -61.4919 196.09
lowerback 21.5075 1.61997 -4.63423
upperback -4.92125 1.74507 5.82628
thorax -17.945 1.65469 8.58139
lowerneck -16.5542 -4.56759 -5.30577
upperneck 29.6101 -5.41304 -1.63049
head 12.7205 -3.5599 -0.649382
rclavicle 6.06293e-015 3.93594e-014
rhumerus -55.097 59.4343 -106.316
rradius 52.4549
rwrist -27.2021
rhand -17.2474 4.49026
rfingers 7.12502
rthumb 8.99665 -25.2979
lclavicle 6.06293e-015 3.93594e-014
lhumerus -45.5677 -28.1494 108.123
lradius 57.7939
lwrist 5.89042
lhand -25.5658 22.3726
lfingers 7.12502
lthumb 0.965069 52.3501
rfemur -37.3141 -10.5126 35.3021
rtibia 83.213
rfoot 32.85 -22.2763
rtoes -17.5872
lfemur -45.501 0.653597 -25.7523
ltibia 80.2468
lfoot 176.64 -34.8301
ltoes -55.6759
387
root 2.56004 16.0196 0.72711 154.25 -61.4809 196.101
lowerback 21.5536 1.64001 -4.7083
upperback -4.90547 1.75038 5.82554
thorax -17.956 1.66541 8.62095
lowerneck -16.3323 -4.55625 -5.32663
upperneck 29.461 -5.35604 -1.78282
head 12.6088 -3.55669 -0.683609
rclavicle 1.76918e-014 8.3092e-014
rhumerus -55.0216 59.4902 -106.281
rradius 52.4947
rwrist -27.209
rhand -17.1214 4.24819
rfingers 7.12502
rthumb 9.11823 -25.5347
lclavicle 1.76918e-014 8.3092e-014
lhumerus -45.5671 -28.1099 108.044
lradius 58.0055
lwrist 6.02149
lhand -24.7385 22.9478
lfingers 7.12502
lthumb 1.76408 52.9203
rfemur -37.3293 -10.3885 35.3656
rtibia 83.1366
rfoot 32.4454 -22.8838
rtoes -16.2831
lfemur -45.5464 0.63632 -25.5964
ltibia 80.4408
lfoot 182.621 -34.4646
ltoes -59.1009
388
root 2.54979 16.0236 0.718364 154.17 -61.4717 196.262
lowerback 21.5333 1.62797 -4.69287
upperback -4.84243 1.73884 5.83948
thorax -17.8646 1.65307 8.62859
lowerneck -16.3176 -4.57086 -5.33748
upperneck 29.5159 -5.3142 -2.00228
head 12.6218 -3.57203 -0.760251
rclavicle 4.11484e-014 -5.1684e-015
rhumerus -54.8966 59.614 -106.213
rradius 52.5511
rwrist -27.2878
rhand -16.7151 4.26652
rfingers 7.12502
rthumb 9.51028 -25.4989
lclavicle 4.11484e-014 -5.1684e-015
lhumerus -45.4109 -28.2059 107.99
lradius 58.0514
lwrist 6.23575
lhand -24.2774 22.9851
lfingers 7.12502
lthumb 2.20947 52.9534
rfemur -37.2721 -10.3135 35.4416
rtibia 83.0391
rfoot 32.4145 -22.942
rtoes -16.2659
lfemur -45.5476 0.63918 -25.4988
ltibia 80.4637
lfoot 185.451 -33.6812
ltoes -60.1453
389
root 2.54011 16.026 0.710695 153.926 -61.4367 196.66
lowerback 21.4791 1.58021 -4.55349
upperback -4.80712 1.71919 5.89461
thorax -17.7849 1.62699 8.61675
lowerneck -16.4061 -4.54201 -5.21947
upperneck 29.6761 -5.17843 -2.43781
head 12.6868 -3.56403 -0.932737
rclavicle -9.93923e-015 -5.56597e-015
rhumerus -54.879 59.6922 -106.191
rradius 52.624
rwrist -27.2478
rhand -16.6434 4.45621
rfingers 7.12502
rthumb 9.57939 -25.306
lclavicle -9.93923e-015 -5.56597e-015
lhumerus -45.2644 -28.1919 107.949
lradius 57.9996
lwrist 6.24528
lhand -24.2502 22.8685
lfingers 7.12502
lthumb 2.23573 52.8365
rfemur -37.2672 -10.2497 35.6532
rtibia 82.9647
rfoot 32.2195 -22.8283
rtoes -16.9388
lfemur -45.6479 0.595457 -25.3092
ltibia 80.3367
lfoot 186.959 -32.8103
ltoes -60.3265
390
root 2.53159 16.0276 0.703067 153.76 -61.4521 196.927
lowerback 21.5035 1.53588 -4.58099
upperback -4.78981 1.66204 5.99482
thorax -17.7754 1.6099 8.77021
lowerneck -16.4007 -4.43137 -5.054
upperneck 29.751 -4.90885 -2.98372
head 12.6923 -3.50648 -1.12893
rclavicle -6.95746e-015 5.56597e-015
rhumerus -54.9733 59.8128 -106.201
rradius 52.7165
rwrist -27.0734
rhand -16.8931 4.48378
rfingers 7.12502
rthumb 9.33852 -25.2894
lclavicle -6.95746e-015 5.56597e-015
lhumerus -45.2332 -27.9283 107.944
lradius 58.0002
lwrist 6.03545
lhand -25.7619 23.2887
lfingers 7.12502
lthumb 0.775747 53.267
rfemur -37.252 -10.2619 35.7828
rtibia 82.9305
rfoot 32.1185 -22.8598
rtoes -17.0062
lfemur -45.6833 0.476455 -25.189
ltibia 80.2541
lfoot 188.404 -31.8529
ltoes -60.5369
391
root 2.51944 16.0282 0.695024 153.643 -61.4563 197.155
lowerback 21.4322 1.5008 -4.60222
upperback -4.74655 1.62093 6.10007
thorax -17.6826 1.59488 8.91771
lowerneck -16.2808 -4.39144 -5.35059
upperneck 29.7898 -4.79608 -2.93827
head 12.6955 -3.48908 -1.0431
rclavicle 2.68359e-014 2.78299e-014
rhumerus -55.0376 60.0912 -106.188
rradius 52.8413
rwrist -27.1516
rhand -16.9361 4.38988
rfingers 7.12502
rthumb 9.29697 -25.3851
lclavicle 2.68359e-014 2.78299e-014
lhumerus -45.2633 -27.7312 107.941
lradius 58.1555
lwrist 5.86661
lhand -30.2686 24.2899
lfingers 7.12502
lthumb -3.5768 54.2397
rfemur -37.2651 -10.2563 35.8978
rtibia 82.9632
rfoot 32.2664 -22.7968
rtoes -16.9819
lfemur -45.7389 0.376391 -25.1331
ltibia 80.1459
lfoot 189.562 -31.0713
ltoes -60.4351
392
root 2.5062 16.0267 0.688022 153.486 -61.4294 197.517
lowerback 21.2736 1.43856 -4.49941
upperback -4.72622 1.58076 6.22354
thorax -17.5649 1.56682 9.01442
lowerneck -16.1857 -4.34175 -5.85434
upperneck 29.9296 -4.67937 -2.67719
head 12.7583 -3.46843 -0.84444
rclavicle -4.92986e-014 -2.22639e-014
rhumerus -55.2557 60.5237 -106.353
rradius 52.9413
rwrist -27.4596
rhand -16.9084 4.1726
rfingers 7.12502
rthumb 9.3237 -25.6012
lclavicle -4.92986e-014 -2.22639e-014
lhumerus -45.2267 -27.6096 107.964
lradius 58.3215
lwrist 5.86175
lhand -25.859 23.1444
lfingers 7.12502
lthumb 0.681968 53.123
rfemur -37.3614 -10.2437 36.1243
rtibia 82.9802
rfoot 32.2854 -22.8595
rtoes -17.019
lfemur -45.9465 0.304052 -25.043
ltibia 79.8929
lfoot 190.209 -30.3735
ltoes -59.9279
393
root 2.49468 16.0271 0.681613 153.413 -61.427 197.714
lowerback 21.2262 1.39975 -4.49237
upperback -4.73028 1.54224 6.32635
thorax -17.543 1.55419 9.14478
lowerneck -16.0181 -4.23042 -5.93218
upperneck 29.969 -4.41285 -3.03784
head 12.7311 -3.41698 -0.925112
rclavicle -2.18663e-015 2.54444e-014
rhumerus -55.57 60.8399 -106.632
rradius 52.9648
rwrist -27.6702
rhand -16.8044 3.74435
rfingers 7.12502
rthumb 9.42411 -26.0249
lclavicle -2.18663e-015 2.54444e-014
lhumerus -45.1703 -27.4532 108.027
lradius 58.3727
lwrist 5.85624
lhand -24.2139 22.703
lfingers 7.12502
lthumb 2.27077 52.6706
rfemur -37.359 -10.3048 36.2464
rtibia 82.9509
rfoot 32.5299 -22.9999
rtoes -17.1483
lfemur -45.9996 0.267318 -25.0018
ltibia 79.7486
lfoot 189.382 -30.2933
ltoes -59.1866
394
root 2.48362 16.0303 0.675742 153.558 -61.4673 197.582
lowerback 21.2212 1.40846 -4.70704
upperback -4.69902 1.50237 6.39348
thorax -17.5072 1.56214 9.36166
lowerneck -15.7642 -4.19142 -5.92355
upperneck 29.8708 -4.2332 -3.5585
head 12.6253 -3.41043 -1.08757
rclavicle -2.10712e-014 1.15295e-014
rhumerus -55.7437 61.0733 -106.76
rradius 52.9773
rwrist -27.6853
rhand -16.3402 3.49626
rfingers 7.12502
rthumb 9.87191 -26.2523
lclavicle -2.10712e-014 1.15295e-014
lhumerus -44.9013 -27.3577 108.044
lradius 58.0999
lwrist 5.78999
lhand -25.468 20.7642
lfingers 7.12502
lthumb 1.05961 50.7413
rfemur -37.3117 -10.4157 36.1863
rtibia 82.9263
rfoot 32.7023 -23.4195
rtoes -17.0686
lfemur -45.8529 0.294275 -25.1383
ltibia 79.7554
lfoot 188.912 -30.1124
ltoes -58.5276
395
root 2.47401 16.0319 0.67115 153.87 -61.5949 197.297
lowerback 21.1962 1.41431 -4.89012
upperback -4.64385 1.45427 6.34773
thorax -17.4181 1.55254 9.42835
lowerneck -15.5747 -4.26114 -5.9833
upperneck 29.7467 -4.22014 -3.95515
head 12.5304 -3.46378 -1.21718
rclavicle -9.75039e-014 -5.88403e-014
rhumerus -55.5413 61.2008 -106.607
rradius 52.9621
rwrist -27.5327
rhand -16.1812 3.4879
rfingers 7.12502
rthumb 10.0254 -26.2533
lclavicle -9.75039e-014 -5.88403e-014
lhumerus -44.3719 -27.4889 107.913
lradius 57.5675
lwrist 5.6789
lhand -27.8346 17.2416
lfingers 7.12502
lthumb -1.22621 47.2178
rfemur -37.4428 -10.6704 36.022
rtibia 83.1153
rfoot 32.5197 -23.8088
rtoes -17.068
lfemur -45.759 0.307149 -25.4426
ltibia 79.7018
lfoot 188.74 -29.8744
ltoes -58.184
396
root 2.46681 16.0302 0.665141 153.932 -61.6675 197.298
lowerback 21.2235 1.40209 -4.97574
upperback -4.6101 1.41548 6.37224
thorax -17.3891 1.5436 9.51936
lowerneck -15.2752 -4.31073 -5.97083
upperneck 29.4736 -4.14716 -4.56106
head 12.3462 -3.50524 -1.41867
rclavicle 1.16289e-014 2.06736e-014
rhumerus -55.3707 61.3387 -106.459
rradius 52.9393
rwrist -27.3789
rhand -16.5668 3.4577
rfingers 7.12502
rthumb 9.65333 -26.3011
lclavicle 1.16289e-014 2.06736e-014
lhumerus -44.0901 -27.4669 107.843
lradius 57.3732
lwrist 5.55941
lhand -27.7224 17.7573
lfingers 7.12502
lthumb -1.11781 47.7341
rfemur -37.604 -10.9413 36.0123
rtibia 83.4717
rfoot 32.1267 -23.8452
rtoes -17.4354
lfemur -45.77 0.344172 -25.5431
ltibia 79.5668
lfoot 188.228 -29.8133
ltoes -57.6274
